<?xml version="1.0" standalone="no"?>
<svg viewBox="0 0 200 200" xmlns="http://www.w3.org/2000/svg">
  <path fill="#F38181" d="M30.5,-53C37.9,-48.5,41.3,-37.2,47.8,-27.2C54.4,-17.2,64.1,-8.6,63.2,-0.5C62.3,7.5,50.7,15.1,39,16.1C27.3,17.2,15.5,11.7,9,8.6C2.4,5.5,1.2,4.6,0.2,4.2C-0.8,3.9,-1.6,4,-5.8,5.9C-10.1,7.7,-17.7,11.2,-17.6,10.5C-17.5,9.8,-9.6,4.9,-11.1,-0.9C-12.6,-6.6,-23.5,-13.2,-28.4,-22.4C-33.4,-31.5,-32.6,-43.2,-26.9,-48.7C-21.1,-54.1,-10.6,-53.3,0.5,-54.2C11.5,-55,23.1,-57.5,30.5,-53Z" transform="translate(100 100)" />
</svg>
