<svg width="1920" height="1080" viewBox="0 0 1920 1080" xmlns="http://www.w3.org/2000/svg"><path d="M344.4555820112698,0.9999999999998898C361.5505189426416,65.90628964942825,401.34910559514617,247.83700450703628,375.76263456840934,286.2883678550189C350.1761635416725,324.73973120300155,253.27138954342658,195.51963325599561,190.9367558508489,231.70818008789576C128.60212215827121,267.8967269197959,76.19218010064786,492.7859104837303,1.7548324129433297,503.41964884641976C-72.6825152747612,514.0533872091092,-196.02352831207202,351.9506099753289,-255.68733027537826,295.51061026403283C-315.3511322386845,239.07061055273678,-328.8805613917032,232.4946940524227,-356.22797936689415,164.77965057864336C-383.57539734208507,97.06460710486401,-430.0286129751098,-27.968490738966636,-419.77183812652385,-110.77965057864323C-409.5150632779379,-193.59081041831982,-358.3090237593026,-276.3139754147868,-294.6873302753784,-332.0873084594162C-231.06563679145412,-387.8606415040456,-120.8123582440162,-441.37846727140015,-38.04167722297835,-445.4196488464197C44.729003798059495,-449.46083042143925,150.06430748365585,-413.3794443770114,201.93675585084873,-356.3343979095333C253.8092042180416,-299.28935144205525,249.43987528677536,-162.7051030264734,273.1930129801789,-103.14937004155121C296.9461506735824,-43.59363705662901,327.36064507989806,-63.90628964942847,344.4555820112698,0.9999999999998898C361.5505189426416,65.90628964942825,401.34910559514617,247.83700450703628,375.76263456840934,286.2883678550189" fill="#F38181"/></svg>